<svg width="580" height="580" viewBox="0 0 580 580" fill="none" xmlns="http://www.w3.org/2000/svg">
<circle cx="290" cy="290" r="149.5" stroke="url(#paint0_linear_24_12)" stroke-width="31"/>
<rect width="290" height="290" rx="40" fill="#1B2029"/>
<path d="M31.82 171V146.14L26.4 149.42V145.44L31.82 142.2H35.44V171H31.82ZM52.77 171.6C50.9033 171.6 49.2367 171.18 47.77 170.34C46.3167 169.487 45.1633 168.333 44.31 166.88C43.47 165.413 43.05 163.747 43.05 161.88V151.32C43.05 149.453 43.47 147.787 44.31 146.32C45.1633 144.853 46.3167 143.7 47.77 142.86C49.2367 142.02 50.9033 141.6 52.77 141.6C54.6367 141.6 56.3033 142.02 57.77 142.86C59.2367 143.7 60.39 144.853 61.23 146.32C62.07 147.787 62.49 149.453 62.49 151.32V161.88C62.49 163.747 62.07 165.413 61.23 166.88C60.39 168.333 59.2367 169.487 57.77 170.34C56.3033 171.18 54.6367 171.6 52.77 171.6ZM52.77 168.18C53.9033 168.18 54.93 167.907 55.85 167.36C56.77 166.813 57.5033 166.08 58.05 165.16C58.5967 164.227 58.87 163.2 58.87 162.08V151.1C58.87 149.967 58.5967 148.94 58.05 148.02C57.5033 147.1 56.77 146.367 55.85 145.82C54.93 145.273 53.9033 145 52.77 145C51.65 145 50.6233 145.273 49.69 145.82C48.77 146.367 48.0367 147.1 47.49 148.02C46.9433 148.94 46.67 149.967 46.67 151.1V162.08C46.67 163.2 46.9433 164.227 47.49 165.16C48.0367 166.08 48.77 166.813 49.69 167.36C50.6233 167.907 51.65 168.18 52.77 168.18ZM75.3291 165.7V158.06H67.6891V155.12H75.3291V147.5H78.2691V155.12H85.8891V158.06H78.2691V165.7H75.3291ZM97.1047 171V167.94C97.9047 168.087 98.5114 168.06 98.9247 167.86C99.3514 167.647 99.6647 167.28 99.8647 166.76C100.078 166.227 100.251 165.56 100.385 164.76C100.611 163.493 100.805 162.08 100.965 160.52C101.138 158.96 101.291 157.253 101.425 155.4C101.571 153.533 101.705 151.533 101.825 149.4H116.925V171H113.365V152.78H105.065C104.985 154.007 104.885 155.267 104.765 156.56C104.658 157.853 104.545 159.113 104.425 160.34C104.305 161.553 104.171 162.687 104.025 163.74C103.891 164.78 103.745 165.68 103.585 166.44C103.331 167.747 102.978 168.793 102.525 169.58C102.071 170.353 101.418 170.853 100.565 171.08C99.7114 171.32 98.558 171.293 97.1047 171ZM131.902 171.6C129.782 171.6 127.929 171.133 126.342 170.2C124.769 169.253 123.542 167.94 122.662 166.26C121.782 164.567 121.342 162.593 121.342 160.34C121.342 157.98 121.776 155.94 122.642 154.22C123.509 152.487 124.716 151.153 126.262 150.22C127.822 149.273 129.649 148.8 131.742 148.8C133.916 148.8 135.762 149.3 137.282 150.3C138.816 151.3 139.962 152.727 140.722 154.58C141.496 156.433 141.829 158.64 141.722 161.2H138.122V159.92C138.082 157.267 137.542 155.287 136.502 153.98C135.462 152.66 133.916 152 131.862 152C129.662 152 127.989 152.707 126.842 154.12C125.696 155.533 125.122 157.56 125.122 160.2C125.122 162.747 125.696 164.72 126.842 166.12C127.989 167.52 129.622 168.22 131.742 168.22C133.169 168.22 134.409 167.893 135.462 167.24C136.516 166.587 137.342 165.647 137.942 164.42L141.362 165.6C140.522 167.507 139.256 168.987 137.562 170.04C135.882 171.08 133.996 171.6 131.902 171.6ZM123.922 161.2V158.34H139.882V161.2H123.922ZM151.504 171V152.64H143.984V149.4H162.584V152.64H155.064V171H151.504Z" fill="white"/>
<path d="M30.507 210.27C29.217 210.27 28.128 209.985 27.24 209.415C26.352 208.839 25.68 208.044 25.224 207.03C24.768 206.016 24.54 204.846 24.54 203.52C24.54 202.194 24.768 201.024 25.224 200.01C25.68 198.996 26.352 198.204 27.24 197.634C28.128 197.058 29.217 196.77 30.507 196.77C31.803 196.77 32.892 197.058 33.774 197.634C34.662 198.204 35.334 198.996 35.79 200.01C36.252 201.024 36.483 202.194 36.483 203.52C36.483 204.846 36.252 206.016 35.79 207.03C35.334 208.044 34.662 208.839 33.774 209.415C32.892 209.985 31.803 210.27 30.507 210.27ZM30.507 209.001C31.521 209.001 32.367 208.77 33.045 208.308C33.723 207.846 34.23 207.204 34.566 206.382C34.908 205.554 35.079 204.6 35.079 203.52C35.079 202.44 34.908 201.489 34.566 200.667C34.23 199.845 33.723 199.203 33.045 198.741C32.367 198.279 31.521 198.045 30.507 198.039C29.493 198.039 28.65 198.27 27.978 198.732C27.306 199.194 26.799 199.839 26.457 200.667C26.121 201.489 25.95 202.44 25.944 203.52C25.938 204.6 26.103 205.551 26.439 206.373C26.781 207.189 27.291 207.831 27.969 208.299C28.647 208.761 29.493 208.995 30.507 209.001ZM38.2764 210V200.28H46.0074V210H44.6844V201.549H39.5994V210H38.2764ZM48.5424 210L48.5244 200.28H49.8564V203.943H51.5484C51.8304 203.943 52.1064 203.949 52.3764 203.961C52.6464 203.973 52.8894 203.997 53.1054 204.033C53.5854 204.129 54.0114 204.291 54.3834 204.519C54.7554 204.747 55.0494 205.062 55.2654 205.464C55.4814 205.86 55.5894 206.361 55.5894 206.967C55.5894 207.801 55.3734 208.458 54.9414 208.938C54.5094 209.418 53.9664 209.73 53.3124 209.874C53.0664 209.928 52.7994 209.964 52.5114 209.982C52.2234 209.994 51.9414 210 51.6654 210H48.5424ZM49.8564 208.866H51.6114C51.8094 208.866 52.0344 208.86 52.2864 208.848C52.5384 208.836 52.7604 208.803 52.9524 208.749C53.2764 208.659 53.5674 208.479 53.8254 208.209C54.0894 207.933 54.2214 207.519 54.2214 206.967C54.2214 206.421 54.0954 206.01 53.8434 205.734C53.5914 205.452 53.2554 205.266 52.8354 205.176C52.6434 205.134 52.4394 205.107 52.2234 205.095C52.0134 205.083 51.8094 205.077 51.6114 205.077H49.8564V208.866ZM56.7504 210V200.28H58.0734V210H56.7504ZM63.229 210V201.504H59.782V200.28H67.999V201.504H64.552V210H63.229ZM72.1269 210.27C71.3949 210.27 70.7799 210.138 70.2819 209.874C69.7899 209.61 69.4209 209.259 69.1749 208.821C68.9289 208.383 68.8059 207.906 68.8059 207.39C68.8059 206.862 68.9109 206.412 69.1209 206.04C69.3369 205.662 69.6279 205.353 69.9939 205.113C70.3659 204.873 70.7949 204.69 71.2809 204.564C71.7729 204.444 72.3159 204.339 72.9099 204.249C73.5099 204.153 74.0949 204.072 74.6649 204.006C75.2409 203.934 75.7449 203.865 76.1769 203.799L75.7089 204.087C75.7269 203.127 75.5409 202.416 75.1509 201.954C74.7609 201.492 74.0829 201.261 73.1169 201.261C72.4509 201.261 71.8869 201.411 71.4249 201.711C70.9689 202.011 70.6479 202.485 70.4619 203.133L69.1749 202.755C69.3969 201.885 69.8439 201.21 70.5159 200.73C71.1879 200.25 72.0609 200.01 73.1349 200.01C74.0229 200.01 74.7759 200.178 75.3939 200.514C76.0179 200.844 76.4589 201.324 76.7169 201.954C76.8369 202.236 76.9149 202.551 76.9509 202.899C76.9869 203.247 77.0049 203.601 77.0049 203.961V210H75.8259V207.561L76.1679 207.705C75.8379 208.539 75.3249 209.175 74.6289 209.613C73.9329 210.051 73.0989 210.27 72.1269 210.27ZM72.2799 209.127C72.8979 209.127 73.4379 209.016 73.8999 208.794C74.3619 208.572 74.7339 208.269 75.0159 207.885C75.2979 207.495 75.4809 207.057 75.5649 206.571C75.6369 206.259 75.6759 205.917 75.6819 205.545C75.6879 205.167 75.6909 204.885 75.6909 204.699L76.1949 204.96C75.7449 205.02 75.2559 205.08 74.7279 205.14C74.2059 205.2 73.6899 205.269 73.1799 205.347C72.6759 205.425 72.2199 205.518 71.8119 205.626C71.5359 205.704 71.2689 205.815 71.0109 205.959C70.7529 206.097 70.5399 206.283 70.3719 206.517C70.2099 206.751 70.1289 207.042 70.1289 207.39C70.1289 207.672 70.1979 207.945 70.3359 208.209C70.4799 208.473 70.7079 208.692 71.0199 208.866C71.3379 209.04 71.7579 209.127 72.2799 209.127ZM82.9424 210V200.28H86.9474C87.1514 200.28 87.3974 200.292 87.6854 200.316C87.9794 200.34 88.2524 200.385 88.5044 200.451C89.0504 200.595 89.4884 200.889 89.8184 201.333C90.1544 201.777 90.3224 202.311 90.3224 202.935C90.3224 203.283 90.2684 203.595 90.1604 203.871C90.0584 204.141 89.9114 204.375 89.7194 204.573C89.6294 204.675 89.5304 204.765 89.4224 204.843C89.3144 204.915 89.2094 204.975 89.1074 205.023C89.2994 205.059 89.5064 205.143 89.7284 205.275C90.0764 205.479 90.3404 205.755 90.5204 206.103C90.7004 206.445 90.7904 206.862 90.7904 207.354C90.7904 208.02 90.6314 208.563 90.3134 208.983C89.9954 209.403 89.5694 209.691 89.0354 209.847C88.7954 209.913 88.5344 209.955 88.2524 209.973C87.9764 209.991 87.7154 210 87.4694 210H82.9424ZM84.2744 208.875H87.4064C87.5324 208.875 87.6914 208.866 87.8834 208.848C88.0754 208.824 88.2464 208.794 88.3964 208.758C88.7504 208.668 89.0084 208.488 89.1704 208.218C89.3384 207.942 89.4224 207.642 89.4224 207.318C89.4224 206.892 89.2964 206.544 89.0444 206.274C88.7984 205.998 88.4684 205.83 88.0544 205.77C87.9164 205.74 87.7724 205.722 87.6224 205.716C87.4724 205.71 87.3374 205.707 87.2174 205.707H84.2744V208.875ZM84.2744 204.573H86.9924C87.1484 204.573 87.3224 204.564 87.5144 204.546C87.7124 204.522 87.8834 204.483 88.0274 204.429C88.3394 204.321 88.5674 204.135 88.7114 203.871C88.8614 203.607 88.9364 203.319 88.9364 203.007C88.9364 202.665 88.8554 202.365 88.6934 202.107C88.5374 201.849 88.3004 201.669 87.9824 201.567C87.7664 201.489 87.5324 201.444 87.2804 201.432C87.0344 201.42 86.8784 201.414 86.8124 201.414H84.2744V204.573ZM100.22 210.27C99.2417 210.27 98.4137 210.051 97.7357 209.613C97.0577 209.175 96.5417 208.572 96.1877 207.804C95.8397 207.03 95.6597 206.142 95.6477 205.14C95.6597 204.12 95.8457 203.226 96.2057 202.458C96.5657 201.684 97.0847 201.084 97.7627 200.658C98.4407 200.226 99.2627 200.01 100.229 200.01C101.213 200.01 102.068 200.25 102.794 200.73C103.526 201.21 104.027 201.867 104.297 202.701L103.001 203.115C102.773 202.533 102.41 202.083 101.912 201.765C101.42 201.441 100.856 201.279 100.22 201.279C99.5057 201.279 98.9147 201.444 98.4467 201.774C97.9787 202.098 97.6307 202.551 97.4027 203.133C97.1747 203.715 97.0577 204.384 97.0517 205.14C97.0637 206.304 97.3337 207.24 97.8617 207.948C98.3897 208.65 99.1757 209.001 100.22 209.001C100.88 209.001 101.441 208.851 101.903 208.551C102.371 208.245 102.725 207.801 102.965 207.219L104.297 207.615C103.937 208.479 103.409 209.139 102.713 209.595C102.017 210.045 101.186 210.27 100.22 210.27ZM109.95 210.27C108.984 210.27 108.159 210.051 107.475 209.613C106.791 209.175 106.266 208.569 105.9 207.795C105.534 207.021 105.351 206.133 105.351 205.131C105.351 204.111 105.537 203.217 105.909 202.449C106.281 201.681 106.809 201.084 107.493 200.658C108.183 200.226 109.002 200.01 109.95 200.01C110.922 200.01 111.75 200.229 112.434 200.667C113.124 201.099 113.649 201.702 114.009 202.476C114.375 203.244 114.558 204.129 114.558 205.131C114.558 206.151 114.375 207.048 114.009 207.822C113.643 208.59 113.115 209.19 112.425 209.622C111.735 210.054 110.91 210.27 109.95 210.27ZM109.95 209.001C111.03 209.001 111.834 208.644 112.362 207.93C112.89 207.21 113.154 206.277 113.154 205.131C113.154 203.955 112.887 203.019 112.353 202.323C111.825 201.627 111.024 201.279 109.95 201.279C109.224 201.279 108.624 201.444 108.15 201.774C107.682 202.098 107.331 202.551 107.097 203.133C106.869 203.709 106.755 204.375 106.755 205.131C106.755 206.301 107.025 207.24 107.565 207.948C108.105 208.65 108.9 209.001 109.95 209.001ZM119.868 210.27C118.89 210.27 118.035 210.057 117.303 209.631C116.577 209.199 116.004 208.602 115.584 207.84L116.646 207.165C117 207.765 117.441 208.221 117.969 208.533C118.497 208.845 119.103 209.001 119.787 209.001C120.501 209.001 121.074 208.836 121.506 208.506C121.938 208.176 122.154 207.723 122.154 207.147C122.154 206.751 122.061 206.436 121.875 206.202C121.695 205.968 121.419 205.8 121.047 205.698C120.681 205.596 120.222 205.545 119.67 205.545H118.518V204.411H119.652C120.324 204.411 120.864 204.291 121.272 204.051C121.686 203.805 121.893 203.421 121.893 202.899C121.893 202.347 121.686 201.939 121.272 201.675C120.864 201.405 120.375 201.27 119.805 201.27C119.229 201.27 118.683 201.39 118.167 201.63C117.657 201.864 117.228 202.167 116.88 202.539L116.034 201.648C116.52 201.114 117.087 200.709 117.735 200.433C118.389 200.151 119.112 200.01 119.904 200.01C120.528 200.01 121.092 200.121 121.596 200.343C122.106 200.559 122.508 200.877 122.802 201.297C123.102 201.717 123.252 202.221 123.252 202.809C123.252 203.361 123.117 203.838 122.847 204.24C122.583 204.642 122.208 204.975 121.722 205.239L121.65 204.744C122.07 204.822 122.418 204.99 122.694 205.248C122.97 205.506 123.174 205.815 123.306 206.175C123.438 206.535 123.504 206.901 123.504 207.273C123.504 207.891 123.342 208.425 123.018 208.875C122.7 209.319 122.265 209.664 121.713 209.91C121.167 210.15 120.552 210.27 119.868 210.27ZM124.77 212.16V208.866C125.322 208.866 125.718 208.689 125.958 208.335C126.198 207.975 126.393 207.402 126.543 206.616C126.645 206.106 126.729 205.557 126.795 204.969C126.861 204.381 126.918 203.709 126.966 202.953C127.014 202.191 127.059 201.3 127.101 200.28H133.527V208.866H134.463V212.16H133.185V210H126.039V212.16H124.77ZM127.011 208.866H132.213V201.414H128.325C128.307 201.87 128.28 202.353 128.244 202.863C128.214 203.373 128.175 203.883 128.127 204.393C128.085 204.903 128.034 205.383 127.974 205.833C127.92 206.277 127.854 206.667 127.776 207.003C127.686 207.435 127.587 207.804 127.479 208.11C127.377 208.416 127.221 208.668 127.011 208.866ZM139.047 210.27C138.315 210.27 137.7 210.138 137.202 209.874C136.71 209.61 136.341 209.259 136.095 208.821C135.849 208.383 135.726 207.906 135.726 207.39C135.726 206.862 135.831 206.412 136.041 206.04C136.257 205.662 136.548 205.353 136.914 205.113C137.286 204.873 137.715 204.69 138.201 204.564C138.693 204.444 139.236 204.339 139.83 204.249C140.43 204.153 141.015 204.072 141.585 204.006C142.161 203.934 142.665 203.865 143.097 203.799L142.629 204.087C142.647 203.127 142.461 202.416 142.071 201.954C141.681 201.492 141.003 201.261 140.037 201.261C139.371 201.261 138.807 201.411 138.345 201.711C137.889 202.011 137.568 202.485 137.382 203.133L136.095 202.755C136.317 201.885 136.764 201.21 137.436 200.73C138.108 200.25 138.981 200.01 140.055 200.01C140.943 200.01 141.696 200.178 142.314 200.514C142.938 200.844 143.379 201.324 143.637 201.954C143.757 202.236 143.835 202.551 143.871 202.899C143.907 203.247 143.925 203.601 143.925 203.961V210H142.746V207.561L143.088 207.705C142.758 208.539 142.245 209.175 141.549 209.613C140.853 210.051 140.019 210.27 139.047 210.27ZM139.2 209.127C139.818 209.127 140.358 209.016 140.82 208.794C141.282 208.572 141.654 208.269 141.936 207.885C142.218 207.495 142.401 207.057 142.485 206.571C142.557 206.259 142.596 205.917 142.602 205.545C142.608 205.167 142.611 204.885 142.611 204.699L143.115 204.96C142.665 205.02 142.176 205.08 141.648 205.14C141.126 205.2 140.61 205.269 140.1 205.347C139.596 205.425 139.14 205.518 138.732 205.626C138.456 205.704 138.189 205.815 137.931 205.959C137.673 206.097 137.46 206.283 137.292 206.517C137.13 206.751 137.049 207.042 137.049 207.39C137.049 207.672 137.118 207.945 137.256 208.209C137.4 208.473 137.628 208.692 137.94 208.866C138.258 209.04 138.678 209.127 139.2 209.127ZM146.259 210V200.28H147.582V204.501H153.063V200.28H154.386V210H153.063V205.77H147.582V210H146.259ZM164.625 200.28V210H163.338V202.431L158.01 210H156.894V200.28H158.181V207.786L163.518 200.28H164.625ZM174.873 200.28V210H173.586V202.431L168.258 210H167.142V200.28H168.429V207.786L173.766 200.28H174.873ZM177.219 211.881L177.3 211.224C177.54 211.242 177.714 211.194 177.822 211.08C177.93 210.966 177.996 210.813 178.02 210.621C178.044 210.429 178.05 210.222 178.038 210H177.219V208.101H178.758V210.36C178.758 210.912 178.617 211.326 178.335 211.602C178.059 211.878 177.687 211.971 177.219 211.881ZM26.646 239.32L28.527 234.217L28.554 235.729L24.297 225.28H25.701L29.193 234.019H28.617L31.839 225.28H33.189L27.969 239.32H26.646ZM38.4326 235.27C37.4546 235.27 36.6266 235.051 35.9486 234.613C35.2706 234.175 34.7546 233.572 34.4006 232.804C34.0526 232.03 33.8726 231.142 33.8606 230.14C33.8726 229.12 34.0586 228.226 34.4186 227.458C34.7786 226.684 35.2976 226.084 35.9756 225.658C36.6536 225.226 37.4756 225.01 38.4416 225.01C39.4256 225.01 40.2806 225.25 41.0066 225.73C41.7386 226.21 42.2396 226.867 42.5096 227.701L41.2136 228.115C40.9856 227.533 40.6226 227.083 40.1246 226.765C39.6326 226.441 39.0686 226.279 38.4326 226.279C37.7186 226.279 37.1276 226.444 36.6596 226.774C36.1916 227.098 35.8436 227.551 35.6156 228.133C35.3876 228.715 35.2706 229.384 35.2646 230.14C35.2766 231.304 35.5466 232.24 36.0746 232.948C36.6026 233.65 37.3886 234.001 38.4326 234.001C39.0926 234.001 39.6536 233.851 40.1156 233.551C40.5836 233.245 40.9376 232.801 41.1776 232.219L42.5096 232.615C42.1496 233.479 41.6216 234.139 40.9256 234.595C40.2296 235.045 39.3986 235.27 38.4326 235.27ZM46.7759 235V226.504H43.3289V225.28H51.5459V226.504H48.0989V235H46.7759ZM55.6738 235.27C54.9418 235.27 54.3268 235.138 53.8288 234.874C53.3368 234.61 52.9678 234.259 52.7218 233.821C52.4758 233.383 52.3528 232.906 52.3528 232.39C52.3528 231.862 52.4578 231.412 52.6678 231.04C52.8838 230.662 53.1748 230.353 53.5408 230.113C53.9128 229.873 54.3418 229.69 54.8278 229.564C55.3198 229.444 55.8628 229.339 56.4568 229.249C57.0568 229.153 57.6418 229.072 58.2118 229.006C58.7878 228.934 59.2918 228.865 59.7238 228.799L59.2558 229.087C59.2738 228.127 59.0878 227.416 58.6978 226.954C58.3078 226.492 57.6298 226.261 56.6638 226.261C55.9978 226.261 55.4338 226.411 54.9718 226.711C54.5158 227.011 54.1948 227.485 54.0088 228.133L52.7218 227.755C52.9438 226.885 53.3908 226.21 54.0628 225.73C54.7348 225.25 55.6078 225.01 56.6818 225.01C57.5698 225.01 58.3228 225.178 58.9408 225.514C59.5648 225.844 60.0058 226.324 60.2638 226.954C60.3838 227.236 60.4618 227.551 60.4978 227.899C60.5338 228.247 60.5518 228.601 60.5518 228.961V235H59.3728V232.561L59.7148 232.705C59.3848 233.539 58.8718 234.175 58.1758 234.613C57.4798 235.051 56.6458 235.27 55.6738 235.27ZM55.8268 234.127C56.4448 234.127 56.9848 234.016 57.4468 233.794C57.9088 233.572 58.2808 233.269 58.5628 232.885C58.8448 232.495 59.0278 232.057 59.1118 231.571C59.1838 231.259 59.2228 230.917 59.2288 230.545C59.2348 230.167 59.2378 229.885 59.2378 229.699L59.7418 229.96C59.2918 230.02 58.8028 230.08 58.2748 230.14C57.7528 230.2 57.2368 230.269 56.7268 230.347C56.2228 230.425 55.7668 230.518 55.3588 230.626C55.0828 230.704 54.8158 230.815 54.5578 230.959C54.2998 231.097 54.0868 231.283 53.9188 231.517C53.7568 231.751 53.6758 232.042 53.6758 232.39C53.6758 232.672 53.7448 232.945 53.8828 233.209C54.0268 233.473 54.2548 233.692 54.5668 233.866C54.8848 234.04 55.3048 234.127 55.8268 234.127ZM62.8858 235V225.28H64.2088V229.501H69.6898V225.28H71.0128V235H69.6898V230.77H64.2088V235H62.8858ZM77.5885 235.27C76.6225 235.27 75.7975 235.051 75.1135 234.613C74.4295 234.175 73.9045 233.569 73.5385 232.795C73.1725 232.021 72.9895 231.133 72.9895 230.131C72.9895 229.111 73.1755 228.217 73.5475 227.449C73.9195 226.681 74.4475 226.084 75.1315 225.658C75.8215 225.226 76.6405 225.01 77.5885 225.01C78.5605 225.01 79.3885 225.229 80.0725 225.667C80.7625 226.099 81.2875 226.702 81.6475 227.476C82.0135 228.244 82.1965 229.129 82.1965 230.131C82.1965 231.151 82.0135 232.048 81.6475 232.822C81.2815 233.59 80.7535 234.19 80.0635 234.622C79.3735 235.054 78.5485 235.27 77.5885 235.27ZM77.5885 234.001C78.6685 234.001 79.4725 233.644 80.0005 232.93C80.5285 232.21 80.7925 231.277 80.7925 230.131C80.7925 228.955 80.5255 228.019 79.9915 227.323C79.4635 226.627 78.6625 226.279 77.5885 226.279C76.8625 226.279 76.2625 226.444 75.7885 226.774C75.3205 227.098 74.9695 227.551 74.7355 228.133C74.5075 228.709 74.3935 229.375 74.3935 230.131C74.3935 231.301 74.6635 232.24 75.2035 232.948C75.7435 233.65 76.5385 234.001 77.5885 234.001ZM84.1729 235V225.28H88.1779C88.3819 225.28 88.6279 225.292 88.9159 225.316C89.2099 225.34 89.4829 225.385 89.7349 225.451C90.2809 225.595 90.7189 225.889 91.0489 226.333C91.3849 226.777 91.5529 227.311 91.5529 227.935C91.5529 228.283 91.4989 228.595 91.3909 228.871C91.2889 229.141 91.1419 229.375 90.9499 229.573C90.8599 229.675 90.7609 229.765 90.6529 229.843C90.5449 229.915 90.4399 229.975 90.3379 230.023C90.5299 230.059 90.7369 230.143 90.9589 230.275C91.3069 230.479 91.5709 230.755 91.7509 231.103C91.9309 231.445 92.0209 231.862 92.0209 232.354C92.0209 233.02 91.8619 233.563 91.5439 233.983C91.2259 234.403 90.7999 234.691 90.2659 234.847C90.0259 234.913 89.7649 234.955 89.4829 234.973C89.2069 234.991 88.9459 235 88.6999 235H84.1729ZM85.5049 233.875H88.6369C88.7629 233.875 88.9219 233.866 89.1139 233.848C89.3059 233.824 89.4769 233.794 89.6269 233.758C89.9809 233.668 90.2389 233.488 90.4009 233.218C90.5689 232.942 90.6529 232.642 90.6529 232.318C90.6529 231.892 90.5269 231.544 90.2749 231.274C90.0289 230.998 89.6989 230.83 89.2849 230.77C89.1469 230.74 89.0029 230.722 88.8529 230.716C88.7029 230.71 88.5679 230.707 88.4479 230.707H85.5049V233.875ZM85.5049 229.573H88.2229C88.3789 229.573 88.5529 229.564 88.7449 229.546C88.9429 229.522 89.1139 229.483 89.2579 229.429C89.5699 229.321 89.7979 229.135 89.9419 228.871C90.0919 228.607 90.1669 228.319 90.1669 228.007C90.1669 227.665 90.0859 227.365 89.9239 227.107C89.7679 226.849 89.5309 226.669 89.2129 226.567C88.9969 226.489 88.7629 226.444 88.5109 226.432C88.2649 226.42 88.1089 226.414 88.0429 226.414H85.5049V229.573ZM93.8057 235L93.8147 225.28H95.1467V229.96L99.4847 225.28H101.249L96.6947 230.14L101.843 235H99.9167L95.1467 230.32V235H93.8057ZM110.466 225.28V235H109.179V227.431L103.851 235H102.735V225.28H104.022V232.786L109.359 225.28H110.466ZM124.318 225.28V235H123.031V227.431L117.703 235H116.587V225.28H117.874V232.786L123.211 225.28H124.318ZM134.507 235.27C133.541 235.27 132.716 235.051 132.032 234.613C131.348 234.175 130.823 233.569 130.457 232.795C130.091 232.021 129.908 231.133 129.908 230.131C129.908 229.111 130.094 228.217 130.466 227.449C130.838 226.681 131.366 226.084 132.05 225.658C132.74 225.226 133.559 225.01 134.507 225.01C135.479 225.01 136.307 225.229 136.991 225.667C137.681 226.099 138.206 226.702 138.566 227.476C138.932 228.244 139.115 229.129 139.115 230.131C139.115 231.151 138.932 232.048 138.566 232.822C138.2 233.59 137.672 234.19 136.982 234.622C136.292 235.054 135.467 235.27 134.507 235.27ZM134.507 234.001C135.587 234.001 136.391 233.644 136.919 232.93C137.447 232.21 137.711 231.277 137.711 230.131C137.711 228.955 137.444 228.019 136.91 227.323C136.382 226.627 135.581 226.279 134.507 226.279C133.781 226.279 133.181 226.444 132.707 226.774C132.239 227.098 131.888 227.551 131.654 228.133C131.426 228.709 131.312 229.375 131.312 230.131C131.312 231.301 131.582 232.24 132.122 232.948C132.662 233.65 133.457 234.001 134.507 234.001ZM144.997 235.279C144.091 235.273 143.314 235.075 142.666 234.685C142.018 234.295 141.514 233.713 141.154 232.939C140.8 232.165 140.608 231.199 140.578 230.041C140.56 229.531 140.572 228.976 140.614 228.376C140.656 227.77 140.722 227.194 140.812 226.648C140.902 226.102 141.01 225.658 141.136 225.316C141.292 224.872 141.514 224.458 141.802 224.074C142.096 223.684 142.435 223.366 142.819 223.12C143.191 222.868 143.611 222.673 144.079 222.535C144.553 222.391 145.045 222.28 145.555 222.202C146.071 222.124 146.581 222.055 147.085 221.995C147.595 221.935 148.066 221.86 148.498 221.77L148.642 222.967C148.312 223.033 147.922 223.093 147.472 223.147C147.022 223.201 146.551 223.267 146.059 223.345C145.567 223.417 145.096 223.516 144.646 223.642C144.196 223.768 143.812 223.933 143.494 224.137C143.008 224.431 142.633 224.875 142.369 225.469C142.111 226.063 141.952 226.744 141.892 227.512C142.264 226.93 142.756 226.492 143.368 226.198C143.986 225.904 144.655 225.757 145.375 225.757C146.251 225.757 147.004 225.958 147.634 226.36C148.27 226.762 148.759 227.32 149.101 228.034C149.443 228.748 149.614 229.567 149.614 230.491C149.614 231.457 149.425 232.3 149.047 233.02C148.675 233.74 148.144 234.298 147.454 234.694C146.764 235.084 145.945 235.279 144.997 235.279ZM145.096 234.01C146.116 234.01 146.89 233.692 147.418 233.056C147.952 232.42 148.219 231.574 148.219 230.518C148.219 229.438 147.943 228.586 147.391 227.962C146.845 227.338 146.074 227.026 145.078 227.026C144.082 227.026 143.317 227.338 142.783 227.962C142.249 228.586 141.982 229.438 141.982 230.518C141.982 231.598 142.249 232.45 142.783 233.074C143.317 233.698 144.088 234.01 145.096 234.01ZM155.626 235.27C154.648 235.27 153.82 235.051 153.142 234.613C152.464 234.175 151.948 233.572 151.594 232.804C151.246 232.03 151.066 231.142 151.054 230.14C151.066 229.12 151.252 228.226 151.612 227.458C151.972 226.684 152.491 226.084 153.169 225.658C153.847 225.226 154.669 225.01 155.635 225.01C156.619 225.01 157.474 225.25 158.2 225.73C158.932 226.21 159.433 226.867 159.703 227.701L158.407 228.115C158.179 227.533 157.816 227.083 157.318 226.765C156.826 226.441 156.262 226.279 155.626 226.279C154.912 226.279 154.321 226.444 153.853 226.774C153.385 227.098 153.037 227.551 152.809 228.133C152.581 228.715 152.464 229.384 152.458 230.14C152.47 231.304 152.74 232.24 153.268 232.948C153.796 233.65 154.582 234.001 155.626 234.001C156.286 234.001 156.847 233.851 157.309 233.551C157.777 233.245 158.131 232.801 158.371 232.219L159.703 232.615C159.343 233.479 158.815 234.139 158.119 234.595C157.423 235.045 156.592 235.27 155.626 235.27ZM160.397 235V233.839C160.757 233.905 161.03 233.89 161.216 233.794C161.408 233.692 161.549 233.524 161.639 233.29C161.729 233.05 161.804 232.753 161.864 232.399C161.96 231.811 162.047 231.163 162.125 230.455C162.203 229.747 162.272 228.967 162.332 228.115C162.398 227.257 162.464 226.312 162.53 225.28H169.136V235H167.822V226.549H163.754C163.712 227.185 163.664 227.818 163.61 228.448C163.556 229.078 163.499 229.684 163.439 230.266C163.385 230.842 163.325 231.373 163.259 231.859C163.193 232.345 163.124 232.765 163.052 233.119C162.944 233.653 162.8 234.079 162.62 234.397C162.446 234.715 162.185 234.925 161.837 235.027C161.489 235.129 161.009 235.12 160.397 235ZM173.037 239.32L174.918 234.217L174.945 235.729L170.688 225.28H172.092L175.584 234.019H175.008L178.23 225.28H179.58L174.36 239.32H173.037ZM180.063 235L184.167 230.14L180.234 225.28H181.728L185.562 230.077V225.28H186.786V230.077L190.62 225.28H192.105L188.172 230.14L192.276 235H190.737L186.786 230.203V235H185.562V230.203L181.602 235H180.063ZM201.433 225.28V235H200.146V227.431L194.818 235H193.702V225.28H194.989V232.786L200.326 225.28H201.433ZM203.95 235V225.28H207.955C208.159 225.28 208.405 225.292 208.693 225.316C208.987 225.34 209.26 225.385 209.512 225.451C210.058 225.595 210.496 225.889 210.826 226.333C211.162 226.777 211.33 227.311 211.33 227.935C211.33 228.283 211.276 228.595 211.168 228.871C211.066 229.141 210.919 229.375 210.727 229.573C210.637 229.675 210.538 229.765 210.43 229.843C210.322 229.915 210.217 229.975 210.115 230.023C210.307 230.059 210.514 230.143 210.736 230.275C211.084 230.479 211.348 230.755 211.528 231.103C211.708 231.445 211.798 231.862 211.798 232.354C211.798 233.02 211.639 233.563 211.321 233.983C211.003 234.403 210.577 234.691 210.043 234.847C209.803 234.913 209.542 234.955 209.26 234.973C208.984 234.991 208.723 235 208.477 235H203.95ZM205.282 233.875H208.414C208.54 233.875 208.699 233.866 208.891 233.848C209.083 233.824 209.254 233.794 209.404 233.758C209.758 233.668 210.016 233.488 210.178 233.218C210.346 232.942 210.43 232.642 210.43 232.318C210.43 231.892 210.304 231.544 210.052 231.274C209.806 230.998 209.476 230.83 209.062 230.77C208.924 230.74 208.78 230.722 208.63 230.716C208.48 230.71 208.345 230.707 208.225 230.707H205.282V233.875ZM205.282 229.573H208C208.156 229.573 208.33 229.564 208.522 229.546C208.72 229.522 208.891 229.483 209.035 229.429C209.347 229.321 209.575 229.135 209.719 228.871C209.869 228.607 209.944 228.319 209.944 228.007C209.944 227.665 209.863 227.365 209.701 227.107C209.545 226.849 209.308 226.669 208.99 226.567C208.774 226.489 208.54 226.444 208.288 226.432C208.042 226.42 207.886 226.414 207.82 226.414H205.282V229.573ZM216.373 235.27C215.641 235.27 215.026 235.138 214.528 234.874C214.036 234.61 213.667 234.259 213.421 233.821C213.175 233.383 213.052 232.906 213.052 232.39C213.052 231.862 213.157 231.412 213.367 231.04C213.583 230.662 213.874 230.353 214.24 230.113C214.612 229.873 215.041 229.69 215.527 229.564C216.019 229.444 216.562 229.339 217.156 229.249C217.756 229.153 218.341 229.072 218.911 229.006C219.487 228.934 219.991 228.865 220.423 228.799L219.955 229.087C219.973 228.127 219.787 227.416 219.397 226.954C219.007 226.492 218.329 226.261 217.363 226.261C216.697 226.261 216.133 226.411 215.671 226.711C215.215 227.011 214.894 227.485 214.708 228.133L213.421 227.755C213.643 226.885 214.09 226.21 214.762 225.73C215.434 225.25 216.307 225.01 217.381 225.01C218.269 225.01 219.022 225.178 219.64 225.514C220.264 225.844 220.705 226.324 220.963 226.954C221.083 227.236 221.161 227.551 221.197 227.899C221.233 228.247 221.251 228.601 221.251 228.961V235H220.072V232.561L220.414 232.705C220.084 233.539 219.571 234.175 218.875 234.613C218.179 235.051 217.345 235.27 216.373 235.27ZM216.526 234.127C217.144 234.127 217.684 234.016 218.146 233.794C218.608 233.572 218.98 233.269 219.262 232.885C219.544 232.495 219.727 232.057 219.811 231.571C219.883 231.259 219.922 230.917 219.928 230.545C219.934 230.167 219.937 229.885 219.937 229.699L220.441 229.96C219.991 230.02 219.502 230.08 218.974 230.14C218.452 230.2 217.936 230.269 217.426 230.347C216.922 230.425 216.466 230.518 216.058 230.626C215.782 230.704 215.515 230.815 215.257 230.959C214.999 231.097 214.786 231.283 214.618 231.517C214.456 231.751 214.375 232.042 214.375 232.39C214.375 232.672 214.444 232.945 214.582 233.209C214.726 233.473 214.954 233.692 215.266 233.866C215.584 234.04 216.004 234.127 216.526 234.127ZM223.585 235V225.28H224.908V229.501H230.389V225.28H231.712V235H230.389V230.77H224.908V235H223.585ZM241.951 225.28V235H240.664V227.431L235.336 235H234.22V225.28H235.507V232.786L240.844 225.28H241.951ZM250.57 235V231.337H248.302C248.038 231.337 247.765 231.328 247.483 231.31C247.207 231.286 246.949 231.253 246.709 231.211C246.025 231.079 245.443 230.779 244.963 230.311C244.489 229.837 244.252 229.183 244.252 228.349C244.252 227.533 244.474 226.879 244.918 226.387C245.362 225.889 245.899 225.565 246.529 225.415C246.817 225.349 247.108 225.31 247.402 225.298C247.702 225.286 247.96 225.28 248.176 225.28H251.893L251.902 235H250.57ZM243.937 235L246.646 230.923H248.113L245.386 235H243.937ZM248.23 230.203H250.57V226.414H248.23C248.086 226.414 247.885 226.42 247.627 226.432C247.369 226.444 247.126 226.483 246.898 226.549C246.7 226.609 246.502 226.714 246.304 226.864C246.112 227.008 245.95 227.203 245.818 227.449C245.686 227.689 245.62 227.983 245.62 228.331C245.62 228.817 245.752 229.207 246.016 229.501C246.286 229.789 246.622 229.987 247.024 230.095C247.24 230.143 247.456 230.173 247.672 230.185C247.888 230.197 248.074 230.203 248.23 230.203ZM29.157 260.279C28.251 260.273 27.474 260.075 26.826 259.685C26.178 259.295 25.674 258.713 25.314 257.939C24.96 257.165 24.768 256.199 24.738 255.041C24.72 254.531 24.732 253.976 24.774 253.376C24.816 252.77 24.882 252.194 24.972 251.648C25.062 251.102 25.17 250.658 25.296 250.316C25.452 249.872 25.674 249.458 25.962 249.074C26.256 248.684 26.595 248.366 26.979 248.12C27.351 247.868 27.771 247.673 28.239 247.535C28.713 247.391 29.205 247.28 29.715 247.202C30.231 247.124 30.741 247.055 31.245 246.995C31.755 246.935 32.226 246.86 32.658 246.77L32.802 247.967C32.472 248.033 32.082 248.093 31.632 248.147C31.182 248.201 30.711 248.267 30.219 248.345C29.727 248.417 29.256 248.516 28.806 248.642C28.356 248.768 27.972 248.933 27.654 249.137C27.168 249.431 26.793 249.875 26.529 250.469C26.271 251.063 26.112 251.744 26.052 252.512C26.424 251.93 26.916 251.492 27.528 251.198C28.146 250.904 28.815 250.757 29.535 250.757C30.411 250.757 31.164 250.958 31.794 251.36C32.43 251.762 32.919 252.32 33.261 253.034C33.603 253.748 33.774 254.567 33.774 255.491C33.774 256.457 33.585 257.3 33.207 258.02C32.835 258.74 32.304 259.298 31.614 259.694C30.924 260.084 30.105 260.279 29.157 260.279ZM29.256 259.01C30.276 259.01 31.05 258.692 31.578 258.056C32.112 257.42 32.379 256.574 32.379 255.518C32.379 254.438 32.103 253.586 31.551 252.962C31.005 252.338 30.234 252.026 29.238 252.026C28.242 252.026 27.477 252.338 26.943 252.962C26.409 253.586 26.142 254.438 26.142 255.518C26.142 256.598 26.409 257.45 26.943 258.074C27.477 258.698 28.248 259.01 29.256 259.01ZM38.5351 260.27C37.8031 260.27 37.1881 260.138 36.6901 259.874C36.1981 259.61 35.8291 259.259 35.5831 258.821C35.3371 258.383 35.2141 257.906 35.2141 257.39C35.2141 256.862 35.3191 256.412 35.5291 256.04C35.7451 255.662 36.0361 255.353 36.4021 255.113C36.7741 254.873 37.2031 254.69 37.6891 254.564C38.1811 254.444 38.7241 254.339 39.3181 254.249C39.9181 254.153 40.5031 254.072 41.0731 254.006C41.6491 253.934 42.1531 253.865 42.5851 253.799L42.1171 254.087C42.1351 253.127 41.9491 252.416 41.5591 251.954C41.1691 251.492 40.4911 251.261 39.5251 251.261C38.8591 251.261 38.2951 251.411 37.8331 251.711C37.3771 252.011 37.0561 252.485 36.8701 253.133L35.5831 252.755C35.8051 251.885 36.2521 251.21 36.9241 250.73C37.5961 250.25 38.4691 250.01 39.5431 250.01C40.4311 250.01 41.1841 250.178 41.8021 250.514C42.4261 250.844 42.8671 251.324 43.1251 251.954C43.2451 252.236 43.3231 252.551 43.3591 252.899C43.3951 253.247 43.4131 253.601 43.4131 253.961V260H42.2341V257.561L42.5761 257.705C42.2461 258.539 41.7331 259.175 41.0371 259.613C40.3411 260.051 39.5071 260.27 38.5351 260.27ZM38.6881 259.127C39.3061 259.127 39.8461 259.016 40.3081 258.794C40.7701 258.572 41.1421 258.269 41.4241 257.885C41.7061 257.495 41.8891 257.057 41.9731 256.571C42.0451 256.259 42.0841 255.917 42.0901 255.545C42.0961 255.167 42.0991 254.885 42.0991 254.699L42.6031 254.96C42.1531 255.02 41.6641 255.08 41.1361 255.14C40.6141 255.2 40.0981 255.269 39.5881 255.347C39.0841 255.425 38.6281 255.518 38.2201 255.626C37.9441 255.704 37.6771 255.815 37.4191 255.959C37.1611 256.097 36.9481 256.283 36.7801 256.517C36.6181 256.751 36.5371 257.042 36.5371 257.39C36.5371 257.672 36.6061 257.945 36.7441 258.209C36.8881 258.473 37.1161 258.692 37.4281 258.866C37.7461 259.04 38.1661 259.127 38.6881 259.127ZM49.7881 260.27C48.8101 260.27 47.9821 260.051 47.3041 259.613C46.6261 259.175 46.1101 258.572 45.7561 257.804C45.4081 257.03 45.2281 256.142 45.2161 255.14C45.2281 254.12 45.4141 253.226 45.7741 252.458C46.1341 251.684 46.6531 251.084 47.3311 250.658C48.0091 250.226 48.8311 250.01 49.7971 250.01C50.7811 250.01 51.6361 250.25 52.3621 250.73C53.0941 251.21 53.5951 251.867 53.8651 252.701L52.5691 253.115C52.3411 252.533 51.9781 252.083 51.4801 251.765C50.9881 251.441 50.4241 251.279 49.7881 251.279C49.0741 251.279 48.4831 251.444 48.0151 251.774C47.5471 252.098 47.1991 252.551 46.9711 253.133C46.7431 253.715 46.6261 254.384 46.6201 255.14C46.6321 256.304 46.9021 257.24 47.4301 257.948C47.9581 258.65 48.7441 259.001 49.7881 259.001C50.4481 259.001 51.0091 258.851 51.4711 258.551C51.9391 258.245 52.2931 257.801 52.5331 257.219L53.8651 257.615C53.5051 258.479 52.9771 259.139 52.2811 259.595C51.5851 260.045 50.7541 260.27 49.7881 260.27ZM59.4912 260.27C58.5132 260.27 57.6852 260.051 57.0072 259.613C56.3292 259.175 55.8132 258.572 55.4592 257.804C55.1112 257.03 54.9312 256.142 54.9192 255.14C54.9312 254.12 55.1172 253.226 55.4772 252.458C55.8372 251.684 56.3562 251.084 57.0342 250.658C57.7122 250.226 58.5342 250.01 59.5002 250.01C60.4842 250.01 61.3392 250.25 62.0652 250.73C62.7972 251.21 63.2982 251.867 63.5682 252.701L62.2722 253.115C62.0442 252.533 61.6812 252.083 61.1832 251.765C60.6912 251.441 60.1272 251.279 59.4912 251.279C58.7772 251.279 58.1862 251.444 57.7182 251.774C57.2502 252.098 56.9022 252.551 56.6742 253.133C56.4462 253.715 56.3292 254.384 56.3232 255.14C56.3352 256.304 56.6052 257.24 57.1332 257.948C57.6612 258.65 58.4472 259.001 59.4912 259.001C60.1512 259.001 60.7122 258.851 61.1742 258.551C61.6422 258.245 61.9962 257.801 62.2362 257.219L63.5682 257.615C63.2082 258.479 62.6802 259.139 61.9842 259.595C61.2882 260.045 60.4572 260.27 59.4912 260.27ZM69.539 260.27C68.591 260.27 67.769 260.06 67.073 259.64C66.383 259.22 65.846 258.629 65.462 257.867C65.078 257.105 64.886 256.211 64.886 255.185C64.886 254.123 65.075 253.205 65.453 252.431C65.831 251.657 66.362 251.06 67.046 250.64C67.736 250.22 68.549 250.01 69.485 250.01C70.445 250.01 71.264 250.232 71.942 250.676C72.62 251.114 73.133 251.744 73.481 252.566C73.829 253.388 73.988 254.369 73.958 255.509H72.608V255.041C72.584 253.781 72.311 252.83 71.789 252.188C71.273 251.546 70.517 251.225 69.521 251.225C68.477 251.225 67.676 251.564 67.118 252.242C66.566 252.92 66.29 253.886 66.29 255.14C66.29 256.364 66.566 257.315 67.118 257.993C67.676 258.665 68.465 259.001 69.485 259.001C70.181 259.001 70.787 258.842 71.303 258.524C71.825 258.2 72.236 257.735 72.536 257.129L73.769 257.606C73.385 258.452 72.818 259.109 72.068 259.577C71.324 260.039 70.481 260.27 69.539 260.27ZM65.822 255.509V254.402H73.247V255.509H65.822ZM79.9873 249.128C79.5613 249.128 79.1713 249.023 78.8173 248.813C78.4633 248.603 78.1813 248.324 77.9713 247.976C77.7673 247.622 77.6653 247.232 77.6653 246.806H78.7633C78.7633 247.142 78.8833 247.43 79.1233 247.67C79.3633 247.91 79.6513 248.03 79.9873 248.03C80.3293 248.03 80.6173 247.91 80.8513 247.67C81.0913 247.43 81.2113 247.142 81.2113 246.806H82.3093C82.3093 247.232 82.2043 247.622 81.9943 247.976C81.7903 248.324 81.5113 248.603 81.1573 248.813C80.8033 249.023 80.4133 249.128 79.9873 249.128ZM83.6773 250.28V260H82.3903V252.431L77.0623 260H75.9463V250.28H77.2333V257.786L82.5703 250.28H83.6773ZM86.1944 260V250.28H87.5174V254.501H92.9984V250.28H94.3214V260H92.9984V255.77H87.5174V260H86.1944ZM100.897 260.27C99.9311 260.27 99.1061 260.051 98.4221 259.613C97.7381 259.175 97.2131 258.569 96.8471 257.795C96.4811 257.021 96.2981 256.133 96.2981 255.131C96.2981 254.111 96.4841 253.217 96.8561 252.449C97.2281 251.681 97.7561 251.084 98.4401 250.658C99.1301 250.226 99.9491 250.01 100.897 250.01C101.869 250.01 102.697 250.229 103.381 250.667C104.071 251.099 104.596 251.702 104.956 252.476C105.322 253.244 105.505 254.129 105.505 255.131C105.505 256.151 105.322 257.048 104.956 257.822C104.59 258.59 104.062 259.19 103.372 259.622C102.682 260.054 101.857 260.27 100.897 260.27ZM100.897 259.001C101.977 259.001 102.781 258.644 103.309 257.93C103.837 257.21 104.101 256.277 104.101 255.131C104.101 253.955 103.834 253.019 103.3 252.323C102.772 251.627 101.971 251.279 100.897 251.279C100.171 251.279 99.5711 251.444 99.0971 251.774C98.6291 252.098 98.2781 252.551 98.0441 253.133C97.8161 253.709 97.7021 254.375 97.7021 255.131C97.7021 256.301 97.9721 257.24 98.5121 257.948C99.0521 258.65 99.8471 259.001 100.897 259.001ZM107.481 260V250.28H111.486C111.69 250.28 111.936 250.292 112.224 250.316C112.518 250.34 112.791 250.385 113.043 250.451C113.589 250.595 114.027 250.889 114.357 251.333C114.693 251.777 114.861 252.311 114.861 252.935C114.861 253.283 114.807 253.595 114.699 253.871C114.597 254.141 114.45 254.375 114.258 254.573C114.168 254.675 114.069 254.765 113.961 254.843C113.853 254.915 113.748 254.975 113.646 255.023C113.838 255.059 114.045 255.143 114.267 255.275C114.615 255.479 114.879 255.755 115.059 256.103C115.239 256.445 115.329 256.862 115.329 257.354C115.329 258.02 115.17 258.563 114.852 258.983C114.534 259.403 114.108 259.691 113.574 259.847C113.334 259.913 113.073 259.955 112.791 259.973C112.515 259.991 112.254 260 112.008 260H107.481ZM108.813 258.875H111.945C112.071 258.875 112.23 258.866 112.422 258.848C112.614 258.824 112.785 258.794 112.935 258.758C113.289 258.668 113.547 258.488 113.709 258.218C113.877 257.942 113.961 257.642 113.961 257.318C113.961 256.892 113.835 256.544 113.583 256.274C113.337 255.998 113.007 255.83 112.593 255.77C112.455 255.74 112.311 255.722 112.161 255.716C112.011 255.71 111.876 255.707 111.756 255.707H108.813V258.875ZM108.813 254.573H111.531C111.687 254.573 111.861 254.564 112.053 254.546C112.251 254.522 112.422 254.483 112.566 254.429C112.878 254.321 113.106 254.135 113.25 253.871C113.4 253.607 113.475 253.319 113.475 253.007C113.475 252.665 113.394 252.365 113.232 252.107C113.076 251.849 112.839 251.669 112.521 251.567C112.305 251.489 112.071 251.444 111.819 251.432C111.573 251.42 111.417 251.414 111.351 251.414H108.813V254.573Z" fill="#5B677A"/>
<path d="M290 330C290 307.909 307.909 290 330 290H540C562.091 290 580 307.909 580 330V540C580 562.091 562.091 580 540 580H330C307.909 580 290 562.091 290 540V330Z" fill="#1B2029"/>
<path d="M325.32 486.6C323.84 486.6 322.46 486.293 321.18 485.68C319.913 485.067 318.827 484.227 317.92 483.16C317.027 482.08 316.387 480.84 316 479.44L319.42 478.52C319.66 479.467 320.087 480.287 320.7 480.98C321.313 481.66 322.027 482.193 322.84 482.58C323.667 482.953 324.527 483.14 325.42 483.14C326.593 483.14 327.647 482.86 328.58 482.3C329.527 481.727 330.273 480.973 330.82 480.04C331.367 479.093 331.64 478.06 331.64 476.94C331.64 475.78 331.353 474.733 330.78 473.8C330.22 472.853 329.467 472.107 328.52 471.56C327.573 471.013 326.54 470.74 325.42 470.74C324.153 470.74 323.067 471.007 322.16 471.54C321.267 472.06 320.56 472.7 320.04 473.46L316.88 472.26L317.76 457.2H333.22V460.58H319.48L321.06 459.1L320.32 471.16L319.54 470.14C320.34 469.287 321.293 468.627 322.4 468.16C323.52 467.693 324.66 467.46 325.82 467.46C327.607 467.46 329.207 467.88 330.62 468.72C332.033 469.547 333.153 470.68 333.98 472.12C334.807 473.547 335.22 475.153 335.22 476.94C335.22 478.713 334.767 480.333 333.86 481.8C332.953 483.253 331.747 484.42 330.24 485.3C328.747 486.167 327.107 486.6 325.32 486.6ZM349.723 486.6C347.856 486.6 346.19 486.18 344.723 485.34C343.27 484.487 342.116 483.333 341.263 481.88C340.423 480.413 340.003 478.747 340.003 476.88V466.32C340.003 464.453 340.423 462.787 341.263 461.32C342.116 459.853 343.27 458.7 344.723 457.86C346.19 457.02 347.856 456.6 349.723 456.6C351.59 456.6 353.256 457.02 354.723 457.86C356.19 458.7 357.343 459.853 358.183 461.32C359.023 462.787 359.443 464.453 359.443 466.32V476.88C359.443 478.747 359.023 480.413 358.183 481.88C357.343 483.333 356.19 484.487 354.723 485.34C353.256 486.18 351.59 486.6 349.723 486.6ZM349.723 483.18C350.856 483.18 351.883 482.907 352.803 482.36C353.723 481.813 354.456 481.08 355.003 480.16C355.55 479.227 355.823 478.2 355.823 477.08V466.1C355.823 464.967 355.55 463.94 355.003 463.02C354.456 462.1 353.723 461.367 352.803 460.82C351.883 460.273 350.856 460 349.723 460C348.603 460 347.576 460.273 346.643 460.82C345.723 461.367 344.99 462.1 344.443 463.02C343.896 463.94 343.623 464.967 343.623 466.1V477.08C343.623 478.2 343.896 479.227 344.443 480.16C344.99 481.08 345.723 481.813 346.643 482.36C347.576 482.907 348.603 483.18 349.723 483.18ZM374.762 486.6C372.896 486.6 371.229 486.18 369.762 485.34C368.309 484.487 367.156 483.333 366.302 481.88C365.462 480.413 365.042 478.747 365.042 476.88V466.32C365.042 464.453 365.462 462.787 366.302 461.32C367.156 459.853 368.309 458.7 369.762 457.86C371.229 457.02 372.896 456.6 374.762 456.6C376.629 456.6 378.296 457.02 379.762 457.86C381.229 458.7 382.382 459.853 383.222 461.32C384.062 462.787 384.482 464.453 384.482 466.32V476.88C384.482 478.747 384.062 480.413 383.222 481.88C382.382 483.333 381.229 484.487 379.762 485.34C378.296 486.18 376.629 486.6 374.762 486.6ZM374.762 483.18C375.896 483.18 376.922 482.907 377.842 482.36C378.762 481.813 379.496 481.08 380.042 480.16C380.589 479.227 380.862 478.2 380.862 477.08V466.1C380.862 464.967 380.589 463.94 380.042 463.02C379.496 462.1 378.762 461.367 377.842 460.82C376.922 460.273 375.896 460 374.762 460C373.642 460 372.616 460.273 371.682 460.82C370.762 461.367 370.029 462.1 369.482 463.02C368.936 463.94 368.662 464.967 368.662 466.1V477.08C368.662 478.2 368.936 479.227 369.482 480.16C370.029 481.08 370.762 481.813 371.682 482.36C372.616 482.907 373.642 483.18 374.762 483.18Z" fill="white"/>
<path d="M317.447 525L318.905 521.931L314.297 512.04H315.764L319.598 520.509L323.504 512.04H324.917L318.887 525H317.447ZM329.065 525.27C328.087 525.27 327.259 525.051 326.581 524.613C325.903 524.175 325.387 523.572 325.033 522.804C324.685 522.03 324.505 521.142 324.493 520.14C324.505 519.12 324.691 518.226 325.051 517.458C325.411 516.684 325.93 516.084 326.608 515.658C327.286 515.226 328.108 515.01 329.074 515.01C330.058 515.01 330.913 515.25 331.639 515.73C332.371 516.21 332.872 516.867 333.142 517.701L331.846 518.115C331.618 517.533 331.255 517.083 330.757 516.765C330.265 516.441 329.701 516.279 329.065 516.279C328.351 516.279 327.76 516.444 327.292 516.774C326.824 517.098 326.476 517.551 326.248 518.133C326.02 518.715 325.903 519.384 325.897 520.14C325.909 521.304 326.179 522.24 326.707 522.948C327.235 523.65 328.021 524.001 329.065 524.001C329.725 524.001 330.286 523.851 330.748 523.551C331.216 523.245 331.57 522.801 331.81 522.219L333.142 522.615C332.782 523.479 332.254 524.139 331.558 524.595C330.862 525.045 330.031 525.27 329.065 525.27ZM334.991 525V515.28H342.722V525H341.399V516.549H336.314V525H334.991ZM349.361 525.27C348.413 525.27 347.591 525.06 346.895 524.64C346.205 524.22 345.668 523.629 345.284 522.867C344.9 522.105 344.708 521.211 344.708 520.185C344.708 519.123 344.897 518.205 345.275 517.431C345.653 516.657 346.184 516.06 346.868 515.64C347.558 515.22 348.371 515.01 349.307 515.01C350.267 515.01 351.086 515.232 351.764 515.676C352.442 516.114 352.955 516.744 353.303 517.566C353.651 518.388 353.81 519.369 353.78 520.509H352.43V520.041C352.406 518.781 352.133 517.83 351.611 517.188C351.095 516.546 350.339 516.225 349.343 516.225C348.299 516.225 347.498 516.564 346.94 517.242C346.388 517.92 346.112 518.886 346.112 520.14C346.112 521.364 346.388 522.315 346.94 522.993C347.498 523.665 348.287 524.001 349.307 524.001C350.003 524.001 350.609 523.842 351.125 523.524C351.647 523.2 352.058 522.735 352.358 522.129L353.591 522.606C353.207 523.452 352.64 524.109 351.89 524.577C351.146 525.039 350.303 525.27 349.361 525.27ZM345.644 520.509V519.402H353.069V520.509H345.644ZM355.769 525V515.28H357.056V523.776H360.701V515.28H361.988V523.776H365.624V515.28H366.911V525H355.769ZM369.427 525V515.28H370.75V519.501H376.231V515.28H377.554V525H376.231V520.77H370.75V525H369.427ZM380.08 525L380.062 515.28H381.394V518.943H383.086C383.368 518.943 383.644 518.949 383.914 518.961C384.184 518.973 384.427 518.997 384.643 519.033C385.123 519.129 385.549 519.291 385.921 519.519C386.293 519.747 386.587 520.062 386.803 520.464C387.019 520.86 387.127 521.361 387.127 521.967C387.127 522.801 386.911 523.458 386.479 523.938C386.047 524.418 385.504 524.73 384.85 524.874C384.604 524.928 384.337 524.964 384.049 524.982C383.761 524.994 383.479 525 383.203 525H380.08ZM381.394 523.866H383.149C383.347 523.866 383.572 523.86 383.824 523.848C384.076 523.836 384.298 523.803 384.49 523.749C384.814 523.659 385.105 523.479 385.363 523.209C385.627 522.933 385.759 522.519 385.759 521.967C385.759 521.421 385.633 521.01 385.381 520.734C385.129 520.452 384.793 520.266 384.373 520.176C384.181 520.134 383.977 520.107 383.761 520.095C383.551 520.083 383.347 520.077 383.149 520.077H381.394V523.866ZM388.288 525V515.28H389.611V525H388.288ZM391.049 525L394.847 520.086L391.13 515.28H392.714L395.621 519.069L398.501 515.28H400.085L396.368 520.086L400.175 525H398.582L395.621 521.103L392.642 525H391.049ZM405.216 525V515.28H412.947V525H411.624V516.549H406.539V525H405.216ZM419.838 525.27C418.944 525.27 418.188 525.045 417.57 524.595C416.952 524.139 416.484 523.524 416.166 522.75C415.848 521.97 415.689 521.097 415.689 520.131C415.689 519.147 415.848 518.271 416.166 517.503C416.49 516.729 416.964 516.12 417.588 515.676C418.212 515.232 418.98 515.01 419.892 515.01C420.78 515.01 421.542 515.235 422.178 515.685C422.814 516.135 423.3 516.747 423.636 517.521C423.978 518.295 424.149 519.165 424.149 520.131C424.149 521.103 423.978 521.976 423.636 522.75C423.294 523.524 422.802 524.139 422.16 524.595C421.518 525.045 420.744 525.27 419.838 525.27ZM415.464 529.32V515.28H416.652V522.597H416.796V529.32H415.464ZM419.703 524.037C420.381 524.037 420.945 523.866 421.395 523.524C421.845 523.182 422.181 522.717 422.403 522.129C422.631 521.535 422.745 520.869 422.745 520.131C422.745 519.399 422.634 518.739 422.412 518.151C422.19 517.563 421.851 517.098 421.395 516.756C420.945 516.414 420.372 516.243 419.676 516.243C418.998 516.243 418.434 516.408 417.984 516.738C417.54 517.068 417.207 517.527 416.985 518.115C416.763 518.697 416.652 519.369 416.652 520.131C416.652 520.881 416.763 521.553 416.985 522.147C417.207 522.735 417.543 523.197 417.993 523.533C418.443 523.869 419.013 524.037 419.703 524.037ZM430.184 525.27C429.218 525.27 428.393 525.051 427.709 524.613C427.025 524.175 426.5 523.569 426.134 522.795C425.768 522.021 425.585 521.133 425.585 520.131C425.585 519.111 425.771 518.217 426.143 517.449C426.515 516.681 427.043 516.084 427.727 515.658C428.417 515.226 429.236 515.01 430.184 515.01C431.156 515.01 431.984 515.229 432.668 515.667C433.358 516.099 433.883 516.702 434.243 517.476C434.609 518.244 434.792 519.129 434.792 520.131C434.792 521.151 434.609 522.048 434.243 522.822C433.877 523.59 433.349 524.19 432.659 524.622C431.969 525.054 431.144 525.27 430.184 525.27ZM430.184 524.001C431.264 524.001 432.068 523.644 432.596 522.93C433.124 522.21 433.388 521.277 433.388 520.131C433.388 518.955 433.121 518.019 432.587 517.323C432.059 516.627 431.258 516.279 430.184 516.279C429.458 516.279 428.858 516.444 428.384 516.774C427.916 517.098 427.565 517.551 427.331 518.133C427.103 518.709 426.989 519.375 426.989 520.131C426.989 521.301 427.259 522.24 427.799 522.948C428.339 523.65 429.134 524.001 430.184 524.001ZM440.891 525.27C439.943 525.27 439.121 525.06 438.425 524.64C437.735 524.22 437.198 523.629 436.814 522.867C436.43 522.105 436.238 521.211 436.238 520.185C436.238 519.123 436.427 518.205 436.805 517.431C437.183 516.657 437.714 516.06 438.398 515.64C439.088 515.22 439.901 515.01 440.837 515.01C441.797 515.01 442.616 515.232 443.294 515.676C443.972 516.114 444.485 516.744 444.833 517.566C445.181 518.388 445.34 519.369 445.31 520.509H443.96V520.041C443.936 518.781 443.663 517.83 443.141 517.188C442.625 516.546 441.869 516.225 440.873 516.225C439.829 516.225 439.028 516.564 438.47 517.242C437.918 517.92 437.642 518.886 437.642 520.14C437.642 521.364 437.918 522.315 438.47 522.993C439.028 523.665 439.817 524.001 440.837 524.001C441.533 524.001 442.139 523.842 442.655 523.524C443.177 523.2 443.588 522.735 443.888 522.129L445.121 522.606C444.737 523.452 444.17 524.109 443.42 524.577C442.676 525.039 441.833 525.27 440.891 525.27ZM437.174 520.509V519.402H444.599V520.509H437.174ZM447.298 525L447.307 515.28H448.639V519.96L452.977 515.28H454.741L450.187 520.14L455.335 525H453.409L448.639 520.32V525H447.298ZM458.874 525V516.504H455.427V515.28H463.644V516.504H460.197V525H458.874ZM469.243 525.27C468.277 525.27 467.452 525.051 466.768 524.613C466.084 524.175 465.559 523.569 465.193 522.795C464.827 522.021 464.644 521.133 464.644 520.131C464.644 519.111 464.83 518.217 465.202 517.449C465.574 516.681 466.102 516.084 466.786 515.658C467.476 515.226 468.295 515.01 469.243 515.01C470.215 515.01 471.043 515.229 471.727 515.667C472.417 516.099 472.942 516.702 473.302 517.476C473.668 518.244 473.851 519.129 473.851 520.131C473.851 521.151 473.668 522.048 473.302 522.822C472.936 523.59 472.408 524.19 471.718 524.622C471.028 525.054 470.203 525.27 469.243 525.27ZM469.243 524.001C470.323 524.001 471.127 523.644 471.655 522.93C472.183 522.21 472.447 521.277 472.447 520.131C472.447 518.955 472.18 518.019 471.646 517.323C471.118 516.627 470.317 516.279 469.243 516.279C468.517 516.279 467.917 516.444 467.443 516.774C466.975 517.098 466.624 517.551 466.39 518.133C466.162 518.709 466.048 519.375 466.048 520.131C466.048 521.301 466.318 522.24 466.858 522.948C467.398 523.65 468.193 524.001 469.243 524.001ZM475.827 525V515.28H479.832C480.036 515.28 480.282 515.292 480.57 515.316C480.864 515.34 481.137 515.385 481.389 515.451C481.935 515.595 482.373 515.889 482.703 516.333C483.039 516.777 483.207 517.311 483.207 517.935C483.207 518.283 483.153 518.595 483.045 518.871C482.943 519.141 482.796 519.375 482.604 519.573C482.514 519.675 482.415 519.765 482.307 519.843C482.199 519.915 482.094 519.975 481.992 520.023C482.184 520.059 482.391 520.143 482.613 520.275C482.961 520.479 483.225 520.755 483.405 521.103C483.585 521.445 483.675 521.862 483.675 522.354C483.675 523.02 483.516 523.563 483.198 523.983C482.88 524.403 482.454 524.691 481.92 524.847C481.68 524.913 481.419 524.955 481.137 524.973C480.861 524.991 480.6 525 480.354 525H475.827ZM477.159 523.875H480.291C480.417 523.875 480.576 523.866 480.768 523.848C480.96 523.824 481.131 523.794 481.281 523.758C481.635 523.668 481.893 523.488 482.055 523.218C482.223 522.942 482.307 522.642 482.307 522.318C482.307 521.892 482.181 521.544 481.929 521.274C481.683 520.998 481.353 520.83 480.939 520.77C480.801 520.74 480.657 520.722 480.507 520.716C480.357 520.71 480.222 520.707 480.102 520.707H477.159V523.875ZM477.159 519.573H479.877C480.033 519.573 480.207 519.564 480.399 519.546C480.597 519.522 480.768 519.483 480.912 519.429C481.224 519.321 481.452 519.135 481.596 518.871C481.746 518.607 481.821 518.319 481.821 518.007C481.821 517.665 481.74 517.365 481.578 517.107C481.422 516.849 481.185 516.669 480.867 516.567C480.651 516.489 480.417 516.444 480.165 516.432C479.919 516.42 479.763 516.414 479.697 516.414H477.159V519.573ZM488.353 527.16V523.866C488.905 523.866 489.301 523.689 489.541 523.335C489.781 522.975 489.976 522.402 490.125 521.616C490.228 521.106 490.312 520.557 490.378 519.969C490.444 519.381 490.501 518.709 490.549 517.953C490.597 517.191 490.642 516.3 490.684 515.28H497.109V523.866H498.046V527.16H496.768V525H489.622V527.16H488.353ZM490.594 523.866H495.796V516.414H491.908C491.89 516.87 491.863 517.353 491.827 517.863C491.797 518.373 491.758 518.883 491.71 519.393C491.668 519.903 491.617 520.383 491.557 520.833C491.503 521.277 491.437 521.667 491.359 522.003C491.269 522.435 491.17 522.804 491.062 523.11C490.96 523.416 490.804 523.668 490.594 523.866ZM498.948 525V523.839C499.308 523.905 499.581 523.89 499.767 523.794C499.959 523.692 500.1 523.524 500.19 523.29C500.28 523.05 500.355 522.753 500.415 522.399C500.511 521.811 500.598 521.163 500.676 520.455C500.754 519.747 500.823 518.967 500.883 518.115C500.949 517.257 501.015 516.312 501.081 515.28H507.687V525H506.373V516.549H502.305C502.263 517.185 502.215 517.818 502.161 518.448C502.107 519.078 502.05 519.684 501.99 520.266C501.936 520.842 501.876 521.373 501.81 521.859C501.744 522.345 501.675 522.765 501.603 523.119C501.495 523.653 501.351 524.079 501.171 524.397C500.997 524.715 500.736 524.925 500.388 525.027C500.04 525.129 499.56 525.12 498.948 525ZM516.294 525V521.337H514.026C513.762 521.337 513.489 521.328 513.207 521.31C512.931 521.286 512.673 521.253 512.433 521.211C511.749 521.079 511.167 520.779 510.687 520.311C510.213 519.837 509.976 519.183 509.976 518.349C509.976 517.533 510.198 516.879 510.642 516.387C511.086 515.889 511.623 515.565 512.253 515.415C512.541 515.349 512.832 515.31 513.126 515.298C513.426 515.286 513.684 515.28 513.9 515.28H517.617L517.626 525H516.294ZM509.661 525L512.37 520.923H513.837L511.11 525H509.661ZM513.954 520.203H516.294V516.414H513.954C513.81 516.414 513.609 516.42 513.351 516.432C513.093 516.444 512.85 516.483 512.622 516.549C512.424 516.609 512.226 516.714 512.028 516.864C511.836 517.008 511.674 517.203 511.542 517.449C511.41 517.689 511.344 517.983 511.344 518.331C511.344 518.817 511.476 519.207 511.74 519.501C512.01 519.789 512.346 519.987 512.748 520.095C512.964 520.143 513.18 520.173 513.396 520.185C513.612 520.197 513.798 520.203 513.954 520.203ZM315.251 550L315.26 540.28H316.592V544.96L320.93 540.28H322.694L318.14 545.14L323.288 550H321.362L316.592 545.32V550H315.251ZM323.114 550V548.839C323.474 548.905 323.747 548.89 323.933 548.794C324.125 548.692 324.266 548.524 324.356 548.29C324.446 548.05 324.521 547.753 324.581 547.399C324.677 546.811 324.764 546.163 324.842 545.455C324.92 544.747 324.989 543.967 325.049 543.115C325.115 542.257 325.181 541.312 325.247 540.28H331.853V550H330.539V541.549H326.471C326.429 542.185 326.381 542.818 326.327 543.448C326.273 544.078 326.216 544.684 326.156 545.266C326.102 545.842 326.042 546.373 325.976 546.859C325.91 547.345 325.841 547.765 325.769 548.119C325.661 548.653 325.517 549.079 325.337 549.397C325.163 549.715 324.902 549.925 324.554 550.027C324.206 550.129 323.726 550.12 323.114 550ZM342.089 540.28V550H340.802V542.431L335.474 550H334.358V540.28H335.645V547.786L340.982 540.28H342.089ZM348.728 550.27C347.78 550.27 346.958 550.06 346.262 549.64C345.572 549.22 345.035 548.629 344.651 547.867C344.267 547.105 344.075 546.211 344.075 545.185C344.075 544.123 344.264 543.205 344.642 542.431C345.02 541.657 345.551 541.06 346.235 540.64C346.925 540.22 347.738 540.01 348.674 540.01C349.634 540.01 350.453 540.232 351.131 540.676C351.809 541.114 352.322 541.744 352.67 542.566C353.018 543.388 353.177 544.369 353.147 545.509H351.797V545.041C351.773 543.781 351.5 542.83 350.978 542.188C350.462 541.546 349.706 541.225 348.71 541.225C347.666 541.225 346.865 541.564 346.307 542.242C345.755 542.92 345.479 543.886 345.479 545.14C345.479 546.364 345.755 547.315 346.307 547.993C346.865 548.665 347.654 549.001 348.674 549.001C349.37 549.001 349.976 548.842 350.492 548.524C351.014 548.2 351.425 547.735 351.725 547.129L352.958 547.606C352.574 548.452 352.007 549.109 351.257 549.577C350.513 550.039 349.67 550.27 348.728 550.27ZM345.011 545.509V544.402H352.436V545.509H345.011ZM355.136 550V540.28H356.459V544.501H361.94V540.28H363.263V550H361.94V545.77H356.459V550H355.136ZM368.417 550V541.504H364.97V540.28H373.187V541.504H369.74V550H368.417ZM378.786 550.27C377.82 550.27 376.995 550.051 376.311 549.613C375.627 549.175 375.102 548.569 374.736 547.795C374.37 547.021 374.187 546.133 374.187 545.131C374.187 544.111 374.373 543.217 374.745 542.449C375.117 541.681 375.645 541.084 376.329 540.658C377.019 540.226 377.838 540.01 378.786 540.01C379.758 540.01 380.586 540.229 381.27 540.667C381.96 541.099 382.485 541.702 382.845 542.476C383.211 543.244 383.394 544.129 383.394 545.131C383.394 546.151 383.211 547.048 382.845 547.822C382.479 548.59 381.951 549.19 381.261 549.622C380.571 550.054 379.746 550.27 378.786 550.27ZM378.786 549.001C379.866 549.001 380.67 548.644 381.198 547.93C381.726 547.21 381.99 546.277 381.99 545.131C381.99 543.955 381.723 543.019 381.189 542.323C380.661 541.627 379.86 541.279 378.786 541.279C378.06 541.279 377.46 541.444 376.986 541.774C376.518 542.098 376.167 542.551 375.933 543.133C375.705 543.709 375.591 544.375 375.591 545.131C375.591 546.301 375.861 547.24 376.401 547.948C376.941 548.65 377.736 549.001 378.786 549.001ZM385.37 550V540.28H389.375C389.579 540.28 389.825 540.292 390.113 540.316C390.407 540.34 390.68 540.385 390.932 540.451C391.478 540.595 391.916 540.889 392.246 541.333C392.582 541.777 392.75 542.311 392.75 542.935C392.75 543.283 392.696 543.595 392.588 543.871C392.486 544.141 392.339 544.375 392.147 544.573C392.057 544.675 391.958 544.765 391.85 544.843C391.742 544.915 391.637 544.975 391.535 545.023C391.727 545.059 391.934 545.143 392.156 545.275C392.504 545.479 392.768 545.755 392.948 546.103C393.128 546.445 393.218 546.862 393.218 547.354C393.218 548.02 393.059 548.563 392.741 548.983C392.423 549.403 391.997 549.691 391.463 549.847C391.223 549.913 390.962 549.955 390.68 549.973C390.404 549.991 390.143 550 389.897 550H385.37ZM386.702 548.875H389.834C389.96 548.875 390.119 548.866 390.311 548.848C390.503 548.824 390.674 548.794 390.824 548.758C391.178 548.668 391.436 548.488 391.598 548.218C391.766 547.942 391.85 547.642 391.85 547.318C391.85 546.892 391.724 546.544 391.472 546.274C391.226 545.998 390.896 545.83 390.482 545.77C390.344 545.74 390.2 545.722 390.05 545.716C389.9 545.71 389.765 545.707 389.645 545.707H386.702V548.875ZM386.702 544.573H389.42C389.576 544.573 389.75 544.564 389.942 544.546C390.14 544.522 390.311 544.483 390.455 544.429C390.767 544.321 390.995 544.135 391.139 543.871C391.289 543.607 391.364 543.319 391.364 543.007C391.364 542.665 391.283 542.365 391.121 542.107C390.965 541.849 390.728 541.669 390.41 541.567C390.194 541.489 389.96 541.444 389.708 541.432C389.462 541.42 389.306 541.414 389.24 541.414H386.702V544.573ZM398.606 550V540.28H406.337V550H405.014V541.549H399.929V550H398.606ZM412.923 550.27C411.957 550.27 411.132 550.051 410.448 549.613C409.764 549.175 409.239 548.569 408.873 547.795C408.507 547.021 408.324 546.133 408.324 545.131C408.324 544.111 408.51 543.217 408.882 542.449C409.254 541.681 409.782 541.084 410.466 540.658C411.156 540.226 411.975 540.01 412.923 540.01C413.895 540.01 414.723 540.229 415.407 540.667C416.097 541.099 416.622 541.702 416.982 542.476C417.348 543.244 417.531 544.129 417.531 545.131C417.531 546.151 417.348 547.048 416.982 547.822C416.616 548.59 416.088 549.19 415.398 549.622C414.708 550.054 413.883 550.27 412.923 550.27ZM412.923 549.001C414.003 549.001 414.807 548.644 415.335 547.93C415.863 547.21 416.127 546.277 416.127 545.131C416.127 543.955 415.86 543.019 415.326 542.323C414.798 541.627 413.997 541.279 412.923 541.279C412.197 541.279 411.597 541.444 411.123 541.774C410.655 542.098 410.304 542.551 410.07 543.133C409.842 543.709 409.728 544.375 409.728 545.131C409.728 546.301 409.998 547.24 410.538 547.948C411.078 548.65 411.873 549.001 412.923 549.001ZM423.11 550V540.28H427.115C427.319 540.28 427.565 540.292 427.853 540.316C428.147 540.34 428.42 540.385 428.672 540.451C429.218 540.595 429.656 540.889 429.986 541.333C430.322 541.777 430.49 542.311 430.49 542.935C430.49 543.283 430.436 543.595 430.328 543.871C430.226 544.141 430.079 544.375 429.887 544.573C429.797 544.675 429.698 544.765 429.59 544.843C429.482 544.915 429.377 544.975 429.275 545.023C429.467 545.059 429.674 545.143 429.896 545.275C430.244 545.479 430.508 545.755 430.688 546.103C430.868 546.445 430.958 546.862 430.958 547.354C430.958 548.02 430.799 548.563 430.481 548.983C430.163 549.403 429.737 549.691 429.203 549.847C428.963 549.913 428.702 549.955 428.42 549.973C428.144 549.991 427.883 550 427.637 550H423.11ZM424.442 548.875H427.574C427.7 548.875 427.859 548.866 428.051 548.848C428.243 548.824 428.414 548.794 428.564 548.758C428.918 548.668 429.176 548.488 429.338 548.218C429.506 547.942 429.59 547.642 429.59 547.318C429.59 546.892 429.464 546.544 429.212 546.274C428.966 545.998 428.636 545.83 428.222 545.77C428.084 545.74 427.94 545.722 427.79 545.716C427.64 545.71 427.505 545.707 427.385 545.707H424.442V548.875ZM424.442 544.573H427.16C427.316 544.573 427.49 544.564 427.682 544.546C427.88 544.522 428.051 544.483 428.195 544.429C428.507 544.321 428.735 544.135 428.879 543.871C429.029 543.607 429.104 543.319 429.104 543.007C429.104 542.665 429.023 542.365 428.861 542.107C428.705 541.849 428.468 541.669 428.15 541.567C427.934 541.489 427.7 541.444 427.448 541.432C427.202 541.42 427.046 541.414 426.98 541.414H424.442V544.573ZM436.784 550.27C435.806 550.27 434.978 550.051 434.3 549.613C433.622 549.175 433.106 548.572 432.752 547.804C432.404 547.03 432.224 546.142 432.212 545.14C432.224 544.12 432.41 543.226 432.77 542.458C433.13 541.684 433.649 541.084 434.327 540.658C435.005 540.226 435.827 540.01 436.793 540.01C437.777 540.01 438.632 540.25 439.358 540.73C440.09 541.21 440.591 541.867 440.861 542.701L439.565 543.115C439.337 542.533 438.974 542.083 438.476 541.765C437.984 541.441 437.42 541.279 436.784 541.279C436.07 541.279 435.479 541.444 435.011 541.774C434.543 542.098 434.195 542.551 433.967 543.133C433.739 543.715 433.622 544.384 433.616 545.14C433.628 546.304 433.898 547.24 434.426 547.948C434.954 548.65 435.74 549.001 436.784 549.001C437.444 549.001 438.005 548.851 438.467 548.551C438.935 548.245 439.289 547.801 439.529 547.219L440.861 547.615C440.501 548.479 439.973 549.139 439.277 549.595C438.581 550.045 437.75 550.27 436.784 550.27ZM446.832 550.27C445.884 550.27 445.062 550.06 444.366 549.64C443.676 549.22 443.139 548.629 442.755 547.867C442.371 547.105 442.179 546.211 442.179 545.185C442.179 544.123 442.368 543.205 442.746 542.431C443.124 541.657 443.655 541.06 444.339 540.64C445.029 540.22 445.842 540.01 446.778 540.01C447.738 540.01 448.557 540.232 449.235 540.676C449.913 541.114 450.426 541.744 450.774 542.566C451.122 543.388 451.281 544.369 451.251 545.509H449.901V545.041C449.877 543.781 449.604 542.83 449.082 542.188C448.566 541.546 447.81 541.225 446.814 541.225C445.77 541.225 444.969 541.564 444.411 542.242C443.859 542.92 443.583 543.886 443.583 545.14C443.583 546.364 443.859 547.315 444.411 547.993C444.969 548.665 445.758 549.001 446.778 549.001C447.474 549.001 448.08 548.842 448.596 548.524C449.118 548.2 449.529 547.735 449.829 547.129L451.062 547.606C450.678 548.452 450.111 549.109 449.361 549.577C448.617 550.039 447.774 550.27 446.832 550.27ZM443.115 545.509V544.402H450.54V545.509H443.115ZM457.28 539.128C456.854 539.128 456.464 539.023 456.11 538.813C455.756 538.603 455.474 538.324 455.264 537.976C455.06 537.622 454.958 537.232 454.958 536.806H456.056C456.056 537.142 456.176 537.43 456.416 537.67C456.656 537.91 456.944 538.03 457.28 538.03C457.622 538.03 457.91 537.91 458.144 537.67C458.384 537.43 458.504 537.142 458.504 536.806H459.602C459.602 537.232 459.497 537.622 459.287 537.976C459.083 538.324 458.804 538.603 458.45 538.813C458.096 539.023 457.706 539.128 457.28 539.128ZM460.97 540.28V550H459.683V542.431L454.355 550H453.239V540.28H454.526V547.786L459.863 540.28H460.97ZM467.1 550V537.04H472.104C472.23 537.04 472.371 537.046 472.527 537.058C472.689 537.064 472.851 537.082 473.013 537.112C473.691 537.214 474.264 537.451 474.732 537.823C475.206 538.189 475.563 538.651 475.803 539.209C476.049 539.767 476.172 540.385 476.172 541.063C476.172 541.735 476.049 542.35 475.803 542.908C475.557 543.466 475.197 543.931 474.723 544.303C474.255 544.669 473.685 544.903 473.013 545.005C472.851 545.029 472.689 545.047 472.527 545.059C472.371 545.071 472.23 545.077 472.104 545.077H468.423V550H467.1ZM468.423 543.817H472.068C472.176 543.817 472.302 543.811 472.446 543.799C472.59 543.787 472.731 543.766 472.869 543.736C473.313 543.64 473.676 543.457 473.958 543.187C474.246 542.917 474.459 542.596 474.597 542.224C474.741 541.852 474.813 541.465 474.813 541.063C474.813 540.661 474.741 540.274 474.597 539.902C474.459 539.524 474.246 539.2 473.958 538.93C473.676 538.66 473.313 538.477 472.869 538.381C472.731 538.351 472.59 538.333 472.446 538.327C472.302 538.315 472.176 538.309 472.068 538.309H468.423V543.817ZM482.022 550.27C481.056 550.27 480.231 550.051 479.547 549.613C478.863 549.175 478.338 548.569 477.972 547.795C477.606 547.021 477.423 546.133 477.423 545.131C477.423 544.111 477.609 543.217 477.981 542.449C478.353 541.681 478.881 541.084 479.565 540.658C480.255 540.226 481.074 540.01 482.022 540.01C482.994 540.01 483.822 540.229 484.506 540.667C485.196 541.099 485.721 541.702 486.081 542.476C486.447 543.244 486.63 544.129 486.63 545.131C486.63 546.151 486.447 547.048 486.081 547.822C485.715 548.59 485.187 549.19 484.497 549.622C483.807 550.054 482.982 550.27 482.022 550.27ZM482.022 549.001C483.102 549.001 483.906 548.644 484.434 547.93C484.962 547.21 485.226 546.277 485.226 545.131C485.226 543.955 484.959 543.019 484.425 542.323C483.897 541.627 483.096 541.279 482.022 541.279C481.296 541.279 480.696 541.444 480.222 541.774C479.754 542.098 479.403 542.551 479.169 543.133C478.941 543.709 478.827 544.375 478.827 545.131C478.827 546.301 479.097 547.24 479.637 547.948C480.177 548.65 480.972 549.001 482.022 549.001ZM492.647 550.27C491.669 550.27 490.841 550.051 490.163 549.613C489.485 549.175 488.969 548.572 488.615 547.804C488.267 547.03 488.087 546.142 488.075 545.14C488.087 544.12 488.273 543.226 488.633 542.458C488.993 541.684 489.512 541.084 490.19 540.658C490.868 540.226 491.69 540.01 492.656 540.01C493.64 540.01 494.495 540.25 495.221 540.73C495.953 541.21 496.454 541.867 496.724 542.701L495.428 543.115C495.2 542.533 494.837 542.083 494.339 541.765C493.847 541.441 493.283 541.279 492.647 541.279C491.933 541.279 491.342 541.444 490.874 541.774C490.406 542.098 490.058 542.551 489.83 543.133C489.602 543.715 489.485 544.384 489.479 545.14C489.491 546.304 489.761 547.24 490.289 547.948C490.817 548.65 491.603 549.001 492.647 549.001C493.307 549.001 493.868 548.851 494.33 548.551C494.798 548.245 495.152 547.801 495.392 547.219L496.724 547.615C496.364 548.479 495.836 549.139 495.14 549.595C494.444 550.045 493.613 550.27 492.647 550.27ZM502.351 550.27C501.373 550.27 500.545 550.051 499.867 549.613C499.189 549.175 498.673 548.572 498.319 547.804C497.971 547.03 497.791 546.142 497.779 545.14C497.791 544.12 497.977 543.226 498.337 542.458C498.697 541.684 499.216 541.084 499.894 540.658C500.572 540.226 501.394 540.01 502.36 540.01C503.344 540.01 504.199 540.25 504.925 540.73C505.657 541.21 506.158 541.867 506.428 542.701L505.132 543.115C504.904 542.533 504.541 542.083 504.043 541.765C503.551 541.441 502.987 541.279 502.351 541.279C501.637 541.279 501.046 541.444 500.578 541.774C500.11 542.098 499.762 542.551 499.534 543.133C499.306 543.715 499.189 544.384 499.183 545.14C499.195 546.304 499.465 547.24 499.993 547.948C500.521 548.65 501.307 549.001 502.351 549.001C503.011 549.001 503.572 548.851 504.034 548.551C504.502 548.245 504.856 547.801 505.096 547.219L506.428 547.615C506.068 548.479 505.54 549.139 504.844 549.595C504.148 550.045 503.317 550.27 502.351 550.27ZM516.007 540.28V550H514.72V542.431L509.392 550H508.276V540.28H509.563V547.786L514.9 540.28H516.007ZM526.255 540.28V550H524.968V542.431L519.64 550H518.524V540.28H519.811V547.786L525.148 540.28H526.255Z" fill="#5B677A"/>
<defs>
<linearGradient id="paint0_linear_24_12" x1="290" y1="125" x2="290" y2="455" gradientUnits="userSpaceOnUse">
<stop stop-color="#34C7C2"/>
<stop offset="1" stop-color="#24B38C"/>
</linearGradient>
</defs>
</svg>
