<svg width="82" height="58" viewBox="0 0 82 58" fill="none" xmlns="http://www.w3.org/2000/svg">
<path d="M39.2833 24.0167C40.2923 23.4385 41.1465 22.9054 41.8876 22.3731C44.2675 20.6637 42.2089 17.7564 39.3716 18.4881C31.7176 20.4619 26.9789 22.4667 20.565 25.8733C26.114 21.2879 28.5376 12.6736 57.5216 11.4775C60.8307 11.3409 61.7706 7.92033 58.5432 7.17685C40.9952 3.1344 12.5748 13.9467 0 36C5.78422 22.6435 10.1085 16.2078 21.0188 8.50664C21.272 8.32792 21.5547 8.1852 21.8423 8.06973C25.7915 6.48413 23.0125 4.94629 17.2074 2.1598C23.8029 0.108737 27.6221 -0.0402159 33.985 1.89412C34.5426 2.06364 35.1358 2.10341 35.7085 1.99543C45.6019 0.130236 51.3536 -1.05743 65.596 1.34997C65.7899 1.38274 65.9868 1.43386 66.1727 1.49793C71.7425 3.41803 75.5213 3.73917 78.0375 10.5638C78.2283 11.0815 78.5168 11.564 78.9233 11.9372C81.1504 13.982 83.1964 15.2163 81.1688 17.9406C80.3722 19.1452 78.5579 18.3148 75.4337 16.639C75.0634 16.4403 74.6566 16.3072 74.2402 16.2508C66.7459 15.2368 63.4948 15.1171 59.7788 15.2405C58.5236 15.2822 57.4267 16.0374 56.6901 17.0546C53.5079 21.4486 47.7688 23.5316 39.2833 24.0167Z" fill="white"/>
<path d="M10.444 53V51.36C9.852 51.4613 9.28667 51.4373 8.748 51.288C8.21467 51.1387 7.74 50.8747 7.324 50.496C6.908 50.112 6.58 49.6213 6.34 49.024C6.1 48.4213 5.98 47.7173 5.98 46.912C5.98 46.1067 6.1 45.4 6.34 44.792C6.58 44.184 6.908 43.6853 7.324 43.296C7.74 42.9067 8.21467 42.6347 8.748 42.48C9.28667 42.3253 9.852 42.2987 10.444 42.4V41.48H12.356V42.4C12.948 42.2987 13.5133 42.3253 14.052 42.48C14.5907 42.6347 15.068 42.9067 15.484 43.296C15.9 43.6853 16.228 44.184 16.468 44.792C16.7133 45.4 16.836 46.1067 16.836 46.912C16.836 47.7173 16.7133 48.4213 16.468 49.024C16.228 49.6213 15.9 50.112 15.484 50.496C15.068 50.8747 14.5907 51.1387 14.052 51.288C13.5133 51.4373 12.948 51.4613 12.356 51.36V53H10.444ZM10.444 49.592V44.136C9.98 44.0613 9.58533 44.0933 9.26 44.232C8.94 44.3653 8.68133 44.5707 8.484 44.848C8.292 45.12 8.15333 45.4373 8.068 45.8C7.98267 46.1627 7.94 46.5333 7.94 46.912C7.94 47.2907 7.98267 47.656 8.068 48.008C8.15333 48.36 8.292 48.6693 8.484 48.936C8.68133 49.1973 8.94 49.3893 9.26 49.512C9.58533 49.6347 9.98 49.6613 10.444 49.592ZM12.356 49.592C12.8253 49.6613 13.22 49.6347 13.54 49.512C13.86 49.384 14.1187 49.1893 14.316 48.928C14.5133 48.6667 14.6547 48.3653 14.74 48.024C14.8307 47.6827 14.876 47.3307 14.876 46.968C14.876 46.6053 14.8307 46.2427 14.74 45.88C14.6547 45.512 14.5133 45.1867 14.316 44.904C14.1187 44.616 13.86 44.3973 13.54 44.248C13.22 44.0987 12.8253 44.0613 12.356 44.136V49.592ZM17.6325 53V51.384C17.9472 51.4427 18.1898 51.4373 18.3605 51.368C18.5312 51.2933 18.6592 51.1547 18.7445 50.952C18.8298 50.7493 18.9045 50.48 18.9685 50.144C19.0538 49.6693 19.1285 49.1227 19.1925 48.504C19.2618 47.8853 19.3205 47.224 19.3685 46.52C19.4218 45.816 19.4698 45.096 19.5125 44.36H25.8725V53H23.9525V46.168H21.2085C21.1818 46.5147 21.1498 46.904 21.1125 47.336C21.0752 47.7627 21.0352 48.1947 20.9925 48.632C20.9498 49.0693 20.9018 49.4853 20.8485 49.88C20.8005 50.2693 20.7498 50.6027 20.6965 50.88C20.5738 51.504 20.3978 51.9973 20.1685 52.36C19.9445 52.7227 19.6298 52.9547 19.2245 53.056C18.8192 53.1627 18.2885 53.144 17.6325 53ZM35.608 44.36V53H33.76V47.36L29.648 53H28.104V44.36H29.952V49.856L34.08 44.36H35.608ZM37.8384 53V44.36H45.3424V53H43.4144V46.168H39.7664V53H37.8384ZM47.5728 53V44.36H55.0768V53H53.1488V46.168H49.5008V53H47.5728ZM61.2511 53.24C60.3765 53.24 59.6085 53.0507 58.9471 52.672C58.2858 52.2933 57.7685 51.768 57.3951 51.096C57.0271 50.424 56.8431 49.6507 56.8431 48.776C56.8431 47.832 57.0245 47.0133 57.3871 46.32C57.7498 45.6213 58.2538 45.08 58.8991 44.696C59.5445 44.312 60.2911 44.12 61.1391 44.12C62.0351 44.12 62.7951 44.3307 63.4191 44.752C64.0485 45.168 64.5151 45.7573 64.8191 46.52C65.1231 47.2827 65.2378 48.1813 65.1631 49.216H63.2511V48.512C63.2458 47.5733 63.0805 46.888 62.7551 46.456C62.4298 46.024 61.9178 45.808 61.2191 45.808C60.4298 45.808 59.8431 46.0533 59.4591 46.544C59.0751 47.0293 58.8831 47.7413 58.8831 48.68C58.8831 49.5547 59.0751 50.232 59.4591 50.712C59.8431 51.192 60.4031 51.432 61.1391 51.432C61.6138 51.432 62.0218 51.328 62.3631 51.12C62.7098 50.9067 62.9765 50.6 63.1631 50.2L65.0671 50.776C64.7365 51.5547 64.2245 52.16 63.5311 52.592C62.8431 53.024 62.0831 53.24 61.2511 53.24ZM58.2751 49.216V47.76H64.2191V49.216H58.2751ZM71.1001 53.24C70.2575 53.24 69.5508 53.04 68.9801 52.64C68.4095 52.24 67.9801 51.696 67.6921 51.008C67.4041 50.3147 67.2601 49.5387 67.2601 48.68C67.2601 47.8107 67.4041 47.032 67.6921 46.344C67.9801 45.656 68.4015 45.1147 68.9561 44.72C69.5161 44.32 70.2068 44.12 71.0281 44.12C71.8441 44.12 72.5508 44.32 73.1481 44.72C73.7508 45.1147 74.2175 45.656 74.5481 46.344C74.8788 47.0267 75.0441 47.8053 75.0441 48.68C75.0441 49.544 74.8815 50.32 74.5561 51.008C74.2308 51.696 73.7721 52.24 73.1801 52.64C72.5881 53.04 71.8948 53.24 71.1001 53.24ZM66.9321 56.84V44.36H68.6361V50.424H68.8761V56.84H66.9321ZM70.8041 51.512C71.3055 51.512 71.7188 51.3867 72.0441 51.136C72.3695 50.8853 72.6095 50.5467 72.7641 50.12C72.9241 49.688 73.0041 49.208 73.0041 48.68C73.0041 48.1573 72.9241 47.6827 72.7641 47.256C72.6041 46.824 72.3561 46.4827 72.0201 46.232C71.6841 45.976 71.2575 45.848 70.7401 45.848C70.2495 45.848 69.8495 45.968 69.5401 46.208C69.2308 46.4427 69.0015 46.7733 68.8521 47.2C68.7081 47.6213 68.6361 48.1147 68.6361 48.68C68.6361 49.24 68.7081 49.7333 68.8521 50.16C69.0015 50.5867 69.2335 50.92 69.5481 51.16C69.8681 51.3947 70.2868 51.512 70.8041 51.512Z" fill="white"/>
</svg>
